<?xml version="1.0" standalone="no"?>
<!DOCTYPE svg PUBLIC "-//W3C//DTD SVG 20010904//EN"
 "http://www.w3.org/TR/2001/REC-SVG-20010904/DTD/svg10.dtd">
<svg version="1.0" xmlns="http://www.w3.org/2000/svg"
 width="512.000000pt" height="512.000000pt" viewBox="0 0 512.000000 512.000000"
 preserveAspectRatio="xMidYMid meet">

<g transform="translate(0.000000,512.000000) scale(0.100000,-0.100000)"
fill="#000000" stroke="none">
<path d="M565 4773 c-112 -7 -119 7 107 -221 112 -114 220 -229 240 -257 183
-257 240 -578 157 -885 -25 -96 -104 -257 -164 -337 l-47 -63 62 -67 c72 -78
166 -217 216 -315 111 -221 164 -443 164 -691 0 -234 -37 -394 -156 -681 -41
-99 -73 -181 -71 -183 2 -2 86 31 187 72 284 117 396 144 625 152 401 15 779
-123 1070 -389 l55 -50 62 47 c81 60 242 139 338 164 307 82 630 25 885 -157
28 -20 143 -128 257 -240 205 -203 207 -205 215 -176 4 16 8 153 8 304 0 212
-5 303 -18 395 -41 273 -104 508 -196 732 -58 140 -148 323 -159 323 -4 0 -29
-23 -57 -51 -199 -199 -526 -312 -812 -280 -235 26 -447 120 -599 266 -96 91
-97 86 127 311 l181 181 -48 12 c-229 58 -437 260 -500 489 l-18 63 -180 -180
c-225 -224 -220 -222 -311 -127 -116 120 -200 282 -247 474 -27 110 -29 319
-5 428 45 201 142 386 267 509 27 27 50 53 50 58 0 14 -298 153 -435 202 -230
83 -497 141 -750 165 -101 9 -381 11 -500 3z"/>
</g>
</svg>
