<?xml version="1.0" standalone="no"?>
<!DOCTYPE svg PUBLIC "-//W3C//DTD SVG 20010904//EN"
 "http://www.w3.org/TR/2001/REC-SVG-20010904/DTD/svg10.dtd">
<svg version="1.0" xmlns="http://www.w3.org/2000/svg"
 width="800.000000pt" height="522.000000pt" viewBox="0 0 800.000000 522.000000"
 preserveAspectRatio="xMidYMid meet">

<g transform="translate(0.000000,522.000000) scale(0.100000,-0.100000)"
fill="#000000" stroke="none">
<path d="M3547 4553 c-9 -275 -38 -446 -107 -635 -103 -281 -288 -445 -542
-479 -103 -14 -178 -1 -283 50 -288 139 -410 372 -350 666 21 100 55 189 120
313 34 63 49 102 41 102 -28 0 -368 -115 -520 -176 -815 -328 -1354 -780
-1519 -1277 -49 -144 -60 -234 -54 -427 4 -151 9 -187 31 -264 85 -284 217
-481 471 -699 144 -125 445 -300 660 -385 112 -44 326 -114 331 -109 3 2 -12
33 -32 67 -143 244 -194 458 -144 594 23 59 88 128 143 151 112 45 334 45 477
0 149 -48 253 -111 376 -228 41 -38 75 -68 77 -66 1 2 16 30 32 62 122 237
311 322 510 228 157 -73 294 -204 473 -451 51 -71 237 -372 256 -413 7 -15 10
-11 104 148 295 497 569 755 803 755 130 0 265 -102 348 -264 l33 -66 72 66
c191 178 394 264 621 264 91 0 207 -21 261 -46 101 -48 154 -181 133 -331 -16
-119 -93 -307 -170 -420 -16 -23 -25 -44 -20 -47 10 -6 259 76 361 119 736
311 1140 798 1140 1377 0 476 -263 888 -805 1259 -222 152 -561 324 -870 441
-111 42 -369 126 -412 134 l-36 7 20 -29 c28 -40 99 -183 123 -247 37 -101 52
-182 53 -277 1 -153 -40 -262 -140 -370 -70 -76 -151 -132 -257 -178 -73 -32
-90 -35 -171 -35 -113 0 -179 15 -280 64 -283 138 -445 531 -445 1081 0 179
-3 185 -63 119 -43 -48 -107 -156 -160 -272 l-40 -89 -193 0 -192 0 -50 104
c-72 150 -171 296 -202 296 -4 0 -10 -84 -13 -187z"/>
</g>
</svg>
