<?xml version="1.0" standalone="no"?>
<!DOCTYPE svg PUBLIC "-//W3C//DTD SVG 20010904//EN"
 "http://www.w3.org/TR/2001/REC-SVG-20010904/DTD/svg10.dtd">
<svg version="1.0" xmlns="http://www.w3.org/2000/svg"
 width="50.000000pt" height="50.000000pt" viewBox="0 0 50.000000 50.000000"
 preserveAspectRatio="xMidYMid meet">

<g transform="translate(0.000000,50.000000) scale(0.100000,-0.100000)"
fill="#000000" stroke="none">
<path d="M165 401 c-110 -29 -179 -104 -161 -175 9 -38 52 -82 103 -107 69
-34 217 -34 286 0 188 92 109 276 -123 287 -41 2 -88 0 -105 -5z m185 -27 c36
-11 67 -29 92 -54 52 -51 52 -89 0 -140 -92 -92 -292 -92 -384 0 -49 49 -51
86 -5 136 60 66 186 91 297 58z"/>
<path d="M124 336 c-35 -16 -74 -61 -74 -87 0 -18 46 -79 60 -79 4 0 10 10 13
21 5 17 10 20 29 14 13 -4 33 -8 46 -8 13 -1 30 -11 38 -21 14 -20 14 -20 28
0 8 10 25 20 38 21 13 0 33 4 46 8 19 6 24 3 29 -14 3 -11 9 -21 13 -21 14 0
60 61 60 79 0 27 -28 60 -70 81 -49 25 -53 25 -40 0 13 -24 -2 -60 -25 -60
-16 0 -35 30 -35 57 0 13 -8 18 -30 18 -22 0 -30 -5 -30 -18 0 -27 -19 -57
-35 -57 -23 0 -38 36 -25 60 12 23 6 24 -36 6z"/>
</g>
</svg>
