<?xml version="1.0" standalone="no"?>
<!DOCTYPE svg PUBLIC "-//W3C//DTD SVG 20010904//EN"
 "http://www.w3.org/TR/2001/REC-SVG-20010904/DTD/svg10.dtd">
<svg version="1.0" xmlns="http://www.w3.org/2000/svg"
 width="512.000000pt" height="512.000000pt" viewBox="0 0 512.000000 512.000000"
 preserveAspectRatio="xMidYMid meet">

<g transform="translate(0.000000,512.000000) scale(0.100000,-0.100000)"
fill="#000000" stroke="none">
<path d="M2152 4758 c-8 -8 -12 -54 -12 -139 l0 -127 68 -16 c124 -28 196 -36
327 -36 134 0 198 7 323 36 l72 17 0 126 c0 86 -4 131 -12 139 -17 17 -749 17
-766 0z"/>
<path d="M2136 4266 c-3 -12 -6 -30 -6 -41 0 -11 -11 -44 -25 -72 -13 -29 -21
-53 -17 -53 4 0 45 -7 92 -15 150 -27 344 -36 490 -25 129 9 297 34 308 44 2
3 -3 21 -12 40 -9 19 -21 59 -27 89 l-11 53 -87 -20 c-126 -30 -486 -30 -613
0 l-87 20 -5 -20z"/>
<path d="M1679 3900 c-233 -72 -315 -107 -426 -180 -139 -91 -253 -222 -319
-365 -23 -51 -24 -59 -11 -73 14 -13 38 -6 224 64 l208 79 135 -1 c162 0 178
-3 535 -106 310 -89 394 -107 505 -107 121 -1 193 14 502 103 373 107 386 110
548 110 l135 1 204 -78 c112 -43 210 -76 218 -73 23 9 14 48 -28 126 -102 187
-277 341 -479 420 -30 12 -138 48 -238 80 l-184 57 -106 -28 c-373 -101 -761
-101 -1133 -1 l-106 29 -184 -57z m454 -276 c282 -82 370 -97 480 -83 39 5
187 43 329 84 142 41 264 75 272 75 47 0 96 -51 96 -100 0 -33 -26 -75 -55
-88 -14 -7 -143 -46 -286 -87 -411 -119 -456 -119 -878 4 -308 89 -326 99
-326 172 0 34 6 46 33 70 18 16 42 29 53 29 12 0 139 -34 282 -76z"/>
<path d="M1551 3146 c-52 -126 -65 -196 -65 -351 1 -166 20 -250 88 -390 146
-298 441 -507 793 -560 124 -19 212 -19 336 0 393 59 720 321 836 670 71 213
64 412 -21 626 l-32 81 -46 -6 c-26 -3 -163 -40 -306 -82 -364 -106 -401 -114
-549 -120 -173 -8 -257 7 -577 101 -270 79 -369 105 -405 105 -17 0 -27 -14
-52 -74z m607 -231 c142 -67 257 -127 270 -141 62 -69 -16 -208 -158 -281 -49
-25 -65 -28 -150 -28 -82 0 -103 4 -152 27 -73 34 -142 103 -176 176 -24 50
-27 69 -27 157 0 84 4 107 23 142 48 91 70 88 370 -52z m1076 103 c14 -6 36
-32 48 -57 19 -38 23 -62 23 -141 0 -82 -4 -103 -26 -150 -37 -78 -88 -131
-161 -170 -54 -29 -75 -35 -149 -38 -73 -4 -94 -1 -145 20 -76 31 -125 69
-170 134 -42 61 -48 110 -18 150 23 31 503 262 546 263 15 1 38 -4 52 -11z
m-1244 -720 l90 -79 90 80 c50 44 101 81 113 83 43 7 78 -12 163 -86 l86 -75
90 78 c50 44 102 81 117 84 39 8 77 -14 165 -92 l80 -70 37 32 c20 18 62 54
93 81 48 42 62 49 98 49 34 0 47 -6 70 -32 27 -31 35 -70 22 -106 -4 -9 -67
-70 -141 -136 -186 -164 -173 -165 -375 19 l-27 25 -73 -65 c-98 -87 -116 -98
-159 -98 -30 0 -49 12 -128 80 l-92 80 -33 -27 c-159 -135 -156 -133 -196
-133 -34 0 -49 9 -107 59 -213 184 -217 188 -215 241 2 62 57 104 120 92 12
-2 63 -40 112 -84z"/>
<path d="M1967 2763 c23 -63 84 -103 155 -103 82 0 74 14 -40 68 -60 29 -112
52 -115 52 -4 0 -3 -8 0 -17z"/>
<path d="M2987 2728 c-113 -54 -120 -68 -39 -68 47 0 74 11 110 44 26 23 57
76 45 76 -5 0 -56 -24 -116 -52z"/>
<path d="M626 2001 c-3 -4 84 -123 194 -262 110 -140 212 -278 227 -308 25
-50 31 -93 87 -567 l60 -514 1363 0 1362 0 5 33 c3 17 31 248 61 512 48 412
59 487 79 530 13 28 114 165 225 305 110 140 201 261 201 268 0 9 -107 12
-504 12 l-503 0 -23 -77 c-98 -331 -287 -649 -532 -894 -147 -147 -340 -289
-393 -289 -59 0 -239 133 -400 294 -238 239 -407 517 -515 846 l-38 115 -475
3 c-266 1 -478 -2 -481 -7z"/>
<path d="M1885 1753 c127 -287 338 -554 586 -741 31 -23 59 -42 63 -42 19 0
180 137 272 231 144 149 245 291 337 475 71 142 72 139 -30 89 -201 -98 -416
-142 -638 -131 -221 10 -366 52 -608 174 -4 2 4 -22 18 -55z"/>
<path d="M356 1768 c-9 -12 -16 -29 -16 -38 0 -9 7 -26 16 -38 14 -21 22 -22
140 -22 l125 0 -48 60 -48 60 -77 0 c-68 0 -79 -3 -92 -22z"/>
<path d="M4545 1733 l-45 -58 121 -3 c137 -3 149 2 149 57 0 53 -13 61 -102
61 l-78 0 -45 -57z"/>
</g>
</svg>
