<?xml version="1.0" standalone="no"?>
<!DOCTYPE svg PUBLIC "-//W3C//DTD SVG 20010904//EN"
 "http://www.w3.org/TR/2001/REC-SVG-20010904/DTD/svg10.dtd">
<svg version="1.0" xmlns="http://www.w3.org/2000/svg"
 width="512.000000pt" height="512.000000pt" viewBox="0 0 512.000000 512.000000"
 preserveAspectRatio="xMidYMid meet">

<g transform="translate(0.000000,512.000000) scale(0.100000,-0.100000)"
fill="#000000" stroke="none">
<path d="M4071 4460 c-295 -62 -526 -275 -564 -520 l-11 -69 -421 -3 c-413 -3
-421 -3 -478 -26 -31 -13 -80 -45 -109 -71 l-52 -48 -40 40 c-49 47 -113 81
-184 96 -36 7 -254 11 -681 11 -620 0 -629 0 -655 -21 -33 -26 -36 -79 -6
-109 20 -20 33 -20 653 -20 710 0 703 1 769 -67 73 -75 68 39 68 -1483 l0
-1370 -184 0 c-170 0 -185 -1 -210 -21 -33 -26 -36 -79 -6 -109 20 -20 33 -20
1550 -20 l1530 0 38 34 37 34 3 1529 c2 1519 2 1528 -18 1561 -22 36 -72 62
-118 62 -28 0 -30 3 -36 55 -25 218 -212 420 -470 507 -81 28 -106 31 -226 34
-74 2 -155 -1 -179 -6z m302 -155 c192 -40 359 -180 412 -344 27 -84 18 -207
-23 -294 -102 -219 -403 -350 -667 -291 -133 29 -145 29 -192 -5 l-42 -31 2
58 2 57 -72 71 c-53 51 -82 90 -105 140 -31 65 -33 76 -33 179 0 101 2 115 29
170 43 89 151 192 248 239 43 20 106 43 140 51 84 18 217 18 301 0z m-855
-617 c6 -18 13 -41 17 -50 7 -17 -16 -18 -404 -18 -455 0 -464 -1 -501 -62
-19 -31 -20 -50 -20 -376 l0 -343 25 -24 24 -25 954 0 c950 0 954 0 981 21
l26 20 0 239 0 238 50 36 50 36 0 -1290 0 -1290 -1105 0 -1105 0 0 1364 c0
992 3 1372 11 1397 15 42 53 94 85 115 62 41 85 43 501 44 l402 0 9 -32z
m1452 -1428 l0 -1460 -50 0 -50 0 0 1374 c0 1338 1 1376 19 1408 11 18 27 57
36 86 10 29 23 52 31 52 12 0 14 -223 14 -1460z m-1295 1170 l38 -39 -11 -95
c-16 -130 -15 -153 8 -176 37 -37 72 -26 176 52 l95 71 72 -14 c93 -18 274
-17 355 3 l62 15 0 -153 0 -154 -855 0 -855 0 0 265 0 265 438 0 438 0 39 -40z"/>
<path d="M3860 4030 c-30 -30 -27 -83 6 -109 26 -20 38 -21 359 -21 321 0 333
1 359 21 33 26 36 79 6 109 -19 19 -33 20 -365 20 -332 0 -346 -1 -365 -20z"/>
<path d="M3910 3760 c-30 -30 -27 -83 6 -109 26 -20 39 -21 309 -21 270 0 283
1 309 21 33 26 36 79 6 109 -19 19 -33 20 -315 20 -282 0 -296 -1 -315 -20z"/>
<path d="M2635 2665 l-25 -24 0 -350 c0 -192 3 -357 6 -366 16 -41 48 -45 378
-45 l315 0 28 24 28 24 3 319 c4 346 0 395 -29 424 -18 18 -36 19 -349 19
l-331 0 -24 -25z m575 -380 l0 -255 -225 0 -225 0 0 255 0 255 225 0 225 0 0
-255z"/>
<path d="M3491 2671 c-29 -29 -33 -78 -29 -424 l3 -319 28 -24 28 -24 525 0
525 0 24 25 25 24 0 359 0 359 -23 21 -23 22 -532 0 c-512 0 -533 -1 -551 -19z
m979 -386 l0 -255 -425 0 -425 0 0 255 0 255 425 0 425 0 0 -255z"/>
<path d="M2631 1754 c-20 -26 -21 -37 -21 -414 0 -377 1 -388 21 -414 l20 -26
963 0 963 0 21 23 c22 23 22 26 22 418 l0 396 -23 21 c-22 21 -32 22 -205 22
-169 0 -183 -1 -202 -20 -30 -30 -27 -83 6 -109 24 -19 40 -21 150 -21 l124 0
0 -92 0 -93 -147 0 c-135 -1 -155 -3 -228 -28 -162 -57 -307 -170 -389 -304
l-37 -63 -455 0 -454 0 0 290 0 290 574 0 c565 0 574 0 600 21 33 26 36 79 6
109 -20 20 -33 20 -654 20 l-635 0 -20 -26z m1827 -468 c8 -5 12 -43 12 -122
l0 -114 -310 0 c-170 0 -310 4 -310 9 0 4 30 38 66 75 72 71 171 128 266 152
55 14 254 14 276 0z"/>
<path d="M73 3855 c-18 -8 -42 -29 -53 -47 -20 -33 -20 -43 -18 -1561 l3
-1529 37 -34 38 -34 805 0 c792 0 805 0 825 20 30 30 27 83 -6 109 -26 21 -33
21 -790 21 l-764 0 0 1460 0 1460 225 0 c212 0 226 1 245 20 30 30 27 83 -6
109 -25 20 -39 21 -268 21 -184 -1 -249 -4 -273 -15z"/>
<path d="M293 3610 c-12 -5 -26 -18 -32 -29 -7 -13 -11 -144 -11 -381 l0 -361
25 -24 24 -25 495 0 495 0 28 24 28 24 0 367 0 367 -28 24 -28 24 -487 -1
c-268 0 -497 -4 -509 -9z m897 -405 l0 -265 -395 0 -395 0 0 265 0 265 395 0
395 0 0 -265z"/>
<path d="M1473 3596 l-28 -24 0 -367 0 -367 28 -24 28 -24 355 0 355 0 25 25
25 25 -3 354 c-3 338 -4 355 -23 376 -42 47 -63 50 -409 50 l-325 0 -28 -24z
m637 -391 l0 -265 -255 0 -255 0 0 265 0 265 255 0 255 0 0 -265z"/>
<path d="M275 2665 l-25 -24 0 -354 c0 -437 -14 -401 159 -405 l120 -4 35 -43
c20 -24 36 -46 36 -49 0 -3 -69 -6 -154 -6 l-155 0 -20 -26 c-20 -26 -21 -37
-21 -414 0 -377 1 -388 21 -414 l20 -26 340 0 c201 0 348 4 358 10 29 15 34
36 40 165 l6 120 43 -68 c26 -43 42 -80 42 -100 0 -50 19 -106 40 -117 12 -6
207 -10 538 -10 l519 0 21 23 c22 23 22 26 22 418 l0 396 -23 21 c-22 21 -32
22 -215 22 -106 0 -192 3 -192 6 0 4 16 26 35 50 l35 43 161 3 c155 3 161 4
180 27 18 22 19 44 19 380 l0 358 -23 21 -23 22 -958 0 -957 0 -24 -25z m877
-132 c-7 -3 -38 -43 -67 -89 -30 -46 -58 -84 -62 -84 -5 0 -51 16 -104 36 -92
35 -96 35 -131 21 -62 -26 -72 -54 -69 -177 l2 -107 -93 -23 c-70 -18 -100
-30 -121 -52 -22 -21 -38 -28 -68 -28 l-39 0 0 255 0 255 383 -1 c210 0 376
-3 369 -6z m958 -248 l0 -255 -80 0 c-74 0 -83 2 -103 25 -16 19 -49 33 -122
53 l-100 28 3 109 c3 100 2 113 -17 137 -12 15 -37 32 -55 38 -30 10 -45 7
-126 -25 -51 -19 -97 -35 -104 -35 -6 0 -31 32 -55 72 -24 39 -53 80 -63 90
-17 17 -5 18 402 18 l420 0 0 -255z m-846 4 c34 -51 57 -75 84 -86 34 -14 39
-14 117 16 45 17 85 31 89 31 4 0 4 -38 0 -85 -6 -72 -4 -88 11 -112 27 -41
43 -50 120 -69 39 -9 73 -19 78 -21 4 -3 -7 -23 -25 -45 -63 -77 -78 -103 -78
-136 0 -42 11 -63 68 -130 25 -29 43 -54 41 -56 -2 -2 -37 -11 -78 -21 -49
-12 -84 -27 -105 -46 -31 -27 -31 -28 -29 -123 1 -54 -3 -96 -8 -96 -5 0 -37
11 -71 25 -66 27 -117 32 -149 14 -11 -5 -42 -44 -68 -85 l-48 -75 -38 63
c-73 117 -110 131 -227 83 -34 -14 -66 -25 -71 -25 -6 0 -7 30 -3 80 10 124
-13 155 -139 186 -38 9 -72 18 -74 20 -2 2 14 25 35 50 96 116 98 143 19 241
-30 37 -51 71 -47 74 4 4 39 14 78 24 53 12 79 24 100 47 28 29 29 32 26 124
-1 52 0 94 2 94 3 0 29 -10 58 -21 135 -54 164 -47 233 60 24 39 46 71 48 71
2 0 25 -32 51 -71z m-784 -684 c-14 -37 -1 -82 30 -109 16 -13 66 -33 120 -47
l91 -24 -3 -107 c-2 -95 0 -111 18 -135 28 -38 63 -55 102 -49 32 5 32 5 32
-40 l0 -44 -235 0 -235 0 0 290 0 290 45 0 c43 0 44 -1 35 -25z m1630 -265 l0
-290 -400 0 c-220 0 -400 3 -400 7 0 5 67 115 87 142 2 2 48 -13 103 -33 112
-43 135 -42 182 5 l30 29 -3 112 -4 111 100 28 c124 34 148 57 143 131 l-3 48
83 0 82 0 0 -290z"/>
<path d="M945 1970 c-25 -28 -23 -76 4 -103 21 -21 28 -22 265 -22 226 0 245
1 265 19 27 25 28 79 1 106 -19 19 -33 20 -268 20 -237 0 -250 -1 -267 -20z"/>
<path d="M945 1690 c-25 -28 -23 -76 4 -103 21 -21 28 -22 265 -22 226 0 245
1 265 19 27 25 28 79 1 106 -19 19 -33 20 -268 20 -237 0 -250 -1 -267 -20z"/>
</g>
</svg>
